<?xml version="1.0" encoding="UTF-8"?>
<!DOCTYPE svg PUBLIC "-//W3C//DTD SVG 1.1//EN" "http://www.w3.org/Graphics/SVG/1.1/DTD/svg11.dtd">
<!-- Creator: CorelDRAW 2021.5 -->
<svg xmlns="http://www.w3.org/2000/svg" xml:space="preserve" width="491.598mm" height="57.5838mm" version="1.1" style="shape-rendering:geometricPrecision; text-rendering:geometricPrecision; image-rendering:optimizeQuality; fill-rule:evenodd; clip-rule:evenodd"
viewBox="0 0 42582.64 4987.96"
 xmlns:xlink="http://www.w3.org/1999/xlink"
 xmlns:xodm="http://www.corel.com/coreldraw/odm/2003">
 <defs>
  <style type="text/css">
   <![CDATA[
    .fil0 {fill:#3A435E;fill-rule:nonzero}
    .fil35 {fill:#455561;fill-rule:nonzero}
    .fil1 {fill:url(#id0);fill-rule:nonzero}
    .fil8 {fill:url(#id1);fill-rule:nonzero}
    .fil29 {fill:url(#id2);fill-rule:nonzero}
    .fil20 {fill:url(#id3);fill-rule:nonzero}
    .fil12 {fill:url(#id4);fill-rule:nonzero}
    .fil33 {fill:url(#id5);fill-rule:nonzero}
    .fil11 {fill:url(#id6);fill-rule:nonzero}
    .fil4 {fill:url(#id7);fill-rule:nonzero}
    .fil28 {fill:url(#id8);fill-rule:nonzero}
    .fil15 {fill:url(#id9);fill-rule:nonzero}
    .fil32 {fill:url(#id10);fill-rule:nonzero}
    .fil3 {fill:url(#id11);fill-rule:nonzero}
    .fil31 {fill:url(#id12);fill-rule:nonzero}
    .fil21 {fill:url(#id13);fill-rule:nonzero}
    .fil2 {fill:url(#id14);fill-rule:nonzero}
    .fil30 {fill:url(#id15);fill-rule:nonzero}
    .fil6 {fill:url(#id16);fill-rule:nonzero}
    .fil5 {fill:url(#id17);fill-rule:nonzero}
    .fil23 {fill:url(#id18);fill-rule:nonzero}
    .fil27 {fill:url(#id19);fill-rule:nonzero}
    .fil16 {fill:url(#id20);fill-rule:nonzero}
    .fil7 {fill:url(#id21);fill-rule:nonzero}
    .fil25 {fill:url(#id22);fill-rule:nonzero}
    .fil22 {fill:url(#id23);fill-rule:nonzero}
    .fil34 {fill:url(#id24);fill-rule:nonzero}
    .fil10 {fill:url(#id25);fill-rule:nonzero}
    .fil26 {fill:url(#id26);fill-rule:nonzero}
    .fil13 {fill:url(#id27);fill-rule:nonzero}
    .fil19 {fill:url(#id28);fill-rule:nonzero}
    .fil18 {fill:url(#id29);fill-rule:nonzero}
    .fil24 {fill:url(#id30);fill-rule:nonzero}
    .fil9 {fill:url(#id31);fill-rule:nonzero}
    .fil14 {fill:url(#id32);fill-rule:nonzero}
    .fil17 {fill:url(#id33);fill-rule:nonzero}
   ]]>
  </style>
  <linearGradient id="id0" gradientUnits="userSpaceOnUse" x1="1013.69" y1="-370.58" x2="13068.76" y2="6573.69">
   <stop offset="0" style="stop-opacity:1; stop-color:#5C6672"/>
   <stop offset="0.509804" style="stop-opacity:1; stop-color:#3A435E"/>
   <stop offset="1" style="stop-opacity:1; stop-color:#6C6F7F"/>
  </linearGradient>
  <linearGradient id="id1" gradientUnits="userSpaceOnUse" xlink:href="#id0" x1="2292250.5" y1="-522602.14" x2="2399364.36" y2="210765.73">
  </linearGradient>
  <linearGradient id="id2" gradientUnits="userSpaceOnUse" xlink:href="#id0" x1="-6749616.14" y1="1403943.22" x2="-6770974.8" y2="1249628.9">
  </linearGradient>
  <linearGradient id="id3" gradientUnits="userSpaceOnUse" xlink:href="#id0" x1="-15373249.4" y1="8851195.38" x2="-16142966.95" y2="6703739.68">
  </linearGradient>
  <linearGradient id="id4" gradientUnits="userSpaceOnUse" xlink:href="#id0" x1="1507816.9" y1="-184764.81" x2="1534941.5" y2="11243.95">
  </linearGradient>
  <linearGradient id="id5" gradientUnits="userSpaceOnUse" xlink:href="#id0" x1="-3639271.53" y1="668875.96" x2="-3644365.91" y2="629390.86">
  </linearGradient>
  <linearGradient id="id6" gradientUnits="userSpaceOnUse" xlink:href="#id0" x1="1710084.64" y1="-237847.9" x2="1745077.2" y2="39756.48">
  </linearGradient>
  <linearGradient id="id7" gradientUnits="userSpaceOnUse" xlink:href="#id0" x1="3082841.76" y1="-1495324.66" x2="3820526.24" y2="804578.38">
  </linearGradient>
  <linearGradient id="id8" gradientUnits="userSpaceOnUse" xlink:href="#id0" x1="-8275166.19" y1="1613302.66" x2="-8302710.08" y2="1394785.09">
  </linearGradient>
  <linearGradient id="id9" gradientUnits="userSpaceOnUse" xlink:href="#id0" x1="1067369.62" y1="-88776.65" x2="1077643.22" y2="-14244.74">
  </linearGradient>
  <linearGradient id="id10" gradientUnits="userSpaceOnUse" xlink:href="#id0" x1="-4272024.29" y1="847168.31" x2="-4280109.83" y2="788500.07">
  </linearGradient>
  <linearGradient id="id11" gradientUnits="userSpaceOnUse" xlink:href="#id0" x1="3222794.01" y1="-1742141.46" x2="4200788.64" y2="986078.59">
  </linearGradient>
  <linearGradient id="id12" gradientUnits="userSpaceOnUse" xlink:href="#id0" x1="-4953204.23" y1="1025475.12" x2="-4964920.8" y2="943095.74">
  </linearGradient>
  <linearGradient id="id13" gradientUnits="userSpaceOnUse" xlink:href="#id0" x1="-14813580.46" y1="7637673.63" x2="-15394319.35" y2="5827175.84">
  </linearGradient>
  <linearGradient id="id14" gradientUnits="userSpaceOnUse" xlink:href="#id0" x1="3337021.05" y1="-1983415.91" x2="4585284.12" y2="1176570.61">
  </linearGradient>
  <linearGradient id="id15" gradientUnits="userSpaceOnUse" xlink:href="#id0" x1="-5746195.18" y1="1211883.38" x2="-5762353.55" y2="1098800.45">
  </linearGradient>
  <linearGradient id="id16" gradientUnits="userSpaceOnUse" xlink:href="#id0" x1="2721552.94" y1="-999418.3" x2="3075466.49" y2="475313.12">
  </linearGradient>
  <linearGradient id="id17" gradientUnits="userSpaceOnUse" xlink:href="#id0" x1="2914767.63" y1="-1246789.82" x2="3444104.27" y2="633497.36">
  </linearGradient>
  <linearGradient id="id18" gradientUnits="userSpaceOnUse" xlink:href="#id0" x1="-13511469.86" y1="5225384.65" x2="-13790001.53" y2="4064598.21">
  </linearGradient>
  <linearGradient id="id19" gradientUnits="userSpaceOnUse" xlink:href="#id0" x1="-10807197.85" y1="1844022.29" x2="-10842046.91" y2="1511559.21">
  </linearGradient>
  <linearGradient id="id20" gradientUnits="userSpaceOnUse" xlink:href="#id0" x1="933704.93" y1="-64875.51" x2="940170.89" y2="-14738.07">
  </linearGradient>
  <linearGradient id="id21" gradientUnits="userSpaceOnUse" xlink:href="#id0" x1="2509193.14" y1="-757528.1" x2="2722436.59" y2="333559.89">
  </linearGradient>
  <linearGradient id="id22" gradientUnits="userSpaceOnUse" xlink:href="#id0" x1="-12052976.42" y1="2850673.61" x2="-12137286.56" y2="2273426.37">
  </linearGradient>
  <linearGradient id="id23" gradientUnits="userSpaceOnUse" xlink:href="#id0" x1="-14191094.45" y1="6428154.23" x2="-14607710.82" y2="4948150.18">
  </linearGradient>
  <linearGradient id="id24" gradientUnits="userSpaceOnUse" xlink:href="#id0" x1="-3013273.39" y1="492731.5" x2="-3016064.63" y2="468619.06">
  </linearGradient>
  <linearGradient id="id25" gradientUnits="userSpaceOnUse" xlink:href="#id0" x1="1904516.65" y1="-320361.97" x2="1948796.58" y2="102032.95">
  </linearGradient>
  <linearGradient id="id26" gradientUnits="userSpaceOnUse" xlink:href="#id0" x1="-11367880.06" y1="2056756.16" x2="-11411699.35" y2="1663429.82">
  </linearGradient>
  <linearGradient id="id27" gradientUnits="userSpaceOnUse" xlink:href="#id0" x1="1345108.16" y1="-146758.63" x2="1365647.29" y2="-3068.04">
  </linearGradient>
  <linearGradient id="id28" gradientUnits="userSpaceOnUse" xlink:href="#id0" x1="-11269092.26" y1="14716522.05" x2="16254473.3" y2="2932585.35">
  </linearGradient>
  <linearGradient id="id29" gradientUnits="userSpaceOnUse" xlink:href="#id0" x1="-11767604.63" y1="15707783.49" x2="16376124.92" y2="4034589.01">
  </linearGradient>
  <linearGradient id="id30" gradientUnits="userSpaceOnUse" xlink:href="#id0" x1="-12785972.93" y1="4036035.39" x2="-12953834.01" y2="3177166.98">
  </linearGradient>
  <linearGradient id="id31" gradientUnits="userSpaceOnUse" xlink:href="#id0" x1="2081414.16" y1="-366498.6" x2="2137072.63" y2="133130.43">
  </linearGradient>
  <linearGradient id="id32" gradientUnits="userSpaceOnUse" xlink:href="#id0" x1="1201365.49" y1="-115405.79" x2="1216258.01" y2="-10723.27">
  </linearGradient>
  <linearGradient id="id33" gradientUnits="userSpaceOnUse" xlink:href="#id0" x1="792410.74" y1="-43453.05" x2="795954.35" y2="-12832.11">
  </linearGradient>
 </defs>
 <g id="Layer_x0020_1">
  <metadata id="CorelCorpID_0Corel-Layer"/>
  <g id="_1882368302320">
   <rect class="fil0" x="68.99" y="0" width="42513.64" height="4987.96"/>
   <g>
    <path class="fil1" d="M14072.13 4881.62l-23.15 0c-439.12,-317.42 -1010.24,-692.37 -1655.62,-1024.22 -1362.04,-700.62 -3343.34,-1348.29 -5048.01,-456.08 -512.22,268.14 -1045.31,401.99 -1609.79,401.99 -372.43,0 -758.37,-58.21 -1161.51,-173.95 -893.82,-256.92 -1751.43,-754.7 -2580.61,-1236.21 -689.16,-400.16 -1356.32,-787.71 -1993.22,-1001.31l0 -14.44c639.43,213.83 1308.64,602.53 1999.63,1003.83 1614.37,937.36 3444.18,1999.85 5339.07,1008.17 755.15,-395.35 1626.74,-525.06 2590.69,-385.26 770.74,111.61 1601.54,394.65 2469.92,841.34 653.62,335.99 1230.71,715.97 1672.58,1036.38l0 -0.24z"/>
    <path class="fil2" d="M13683.43 4881.62l-24.3 0c-335.3,-223.68 -718.26,-458.83 -1133.76,-678.61 -1335.69,-706.58 -3289.26,-1395.27 -5012.48,-663.26 -868.15,368.75 -1802.54,421.01 -2856.56,159.97 -928.43,-229.87 -1823.4,-664.41 -2689.02,-1084.73 -680.22,-330.24 -1339.36,-650.19 -1967.09,-843.62l0 -14.44c629.8,193.66 1291,514.52 1973.05,845.68 1686.56,818.88 3598.19,1746.84 5534.34,924.53 763.17,-324.3 1634.76,-400.15 2590.01,-225.52 763.87,139.57 1582.98,438.89 2434.16,889.47 422.85,223.68 812,463.18 1151.43,690.53l0.23 -0.01z"/>
    <path class="fil3" d="M13258.76 4881.62l-25.9 0c-182.66,-111.84 -375.17,-223.91 -575.25,-333.01 -1308.87,-712.76 -3234.93,-1442.26 -4976.73,-870.67 -891.29,292.44 -1859.59,322.23 -2960.14,90.53 -968.76,-203.74 -1906.81,-575.94 -2813.91,-935.99 -658.67,-261.5 -1298.33,-514.97 -1906.35,-684.11l0 -14.21c609.86,169.14 1250.89,423.52 1911.4,685.48 1769.53,702.22 3775.12,1497.95 5764.65,845 771.44,-253.02 1642.57,-275.25 2589.32,-65.55 757.22,167.77 1563.96,483.12 2398.4,937.37 207.41,112.76 406.11,228.96 594.51,344.69l0 0.45z"/>
    <path class="fil4" d="M12794.66 4881.62l-28.2 0c-1282.05,-715.06 -3168.24,-1474.11 -4918.06,-1065.25 -499.15,116.65 -1001.99,166.16 -1503.44,166.39 -1579.54,0 -3148.08,-493.2 -4572.68,-941.03 -611.47,-192.29 -1205.74,-379.07 -1772.06,-518.42l0 -13.98c567.46,139.57 1163.34,326.82 1775.95,519.34 1874.95,589.46 4000.18,1257.3 6068.79,774.18 779.22,-181.97 1650.13,-150.11 2588.64,94.43 749.89,195.49 1544.02,526.66 2360.82,984.12l0.23 0.23z"/>
    <path class="fil5" d="M12288.63 4881.62l-31.4 0c-1202.76,-603.9 -2754.11,-1136.75 -4241.29,-927.05 -450.58,63.48 -905.27,91.45 -1360.66,91.45 -1790.39,0 -3593.84,-430.64 -5224.02,-819.79 -491.37,-117.35 -970.6,-231.7 -1431.03,-329.8l0 -14.21c461.35,98.32 941.72,213.14 1434.23,330.71 2043.4,487.94 4359.53,1041.18 6579.41,728.35 787.25,-110.93 1657.92,-25.21 2587.95,254.4 544.08,163.64 1109.02,393.74 1686.57,686.41l0.23 -0.47z"/>
    <path class="fil6" d="M11742.93 4881.62l-37.13 0c-1057,-475.79 -2300.56,-850.05 -3522.33,-789.08 -306.19,15.36 -615.59,22.46 -926.12,22.46 -2501.78,0 -5108.51,-463.64 -7257.12,-848.44l0 -13.98c2414.91,432.47 5410.57,965.1 8182.56,826.44 795.5,-40.11 1665.71,99.47 2587.04,414.13 318.8,108.87 643.55,238.58 973.12,388.47l-0.01 0z"/>
    <path class="fil7" d="M11166.77 4881.62l-41.71 0c-865.17,-349.51 -1819.5,-613.75 -2773.82,-650.89 -1863.95,-72.42 -3680,-148.51 -5404.85,-282.12 -1118.18,-86.86 -2095.19,-190.68 -2946.16,-313.75l0 -14.9c2594.13,373.8 5843.51,499.85 8351.47,597.03 803.29,31.17 1673.51,224.37 2586.34,573.88 75.86,29.1 152.18,59.13 228.72,90.53l0 0.23z"/>
    <path class="fil8" d="M10586.02 4881.62l-44 0c-647.67,-238.81 -1332.25,-425.59 -2023.47,-512.92 -1490.15,-187.7 -3088.49,-201 -4634.33,-214.29 -1374.42,-11.69 -2700.24,-22.92 -3884.21,-152.87l0 -13.76c1183.74,130.17 2509.79,141.41 3884.21,152.87 1546.3,13.06 3145.1,26.58 4635.93,214.29 654.55,82.51 1347.38,258.98 2065.41,526.44l0.46 0.23z"/>
    <path class="fil9" d="M10049.5 4881.62l-43.09 0c-429.72,-151.49 -872.05,-280.06 -1319.88,-374.71 -1698.02,-358.9 -3547.99,-267.23 -5337.24,-178.53 -1178.23,58.44 -2317.51,114.82 -3349.07,37.58l0 -13.76c1030.88,77.23 2170.15,20.86 3348.37,-37.58 1789.93,-88.69 3640.82,-180.37 5340.68,178.99 440.03,93.05 894.73,222.77 1359.98,388.01l0.24 0z"/>
    <path class="fil10" d="M9614.27 4881.62l-39.88 0c-236.98,-85.71 -477.62,-165.01 -720.33,-236.74 -1791.75,-528.73 -3774.43,-316.5 -5691.79,-111.15 -958.67,102.67 -1890.99,202.37 -2757.08,202.37 -136.83,0 -271.82,-2.52 -404.97,-7.8l0 -13.76c976.56,39.42 2050.97,-75.63 3160.67,-194.35 1918.73,-205.35 3902.78,-417.81 5697.06,111.84 255.08,75.17 507.64,159.05 756.31,249.81l0.01 -0.23z"/>
    <path class="fil11" d="M9314.27 4881.62l-37.13 0c-84.57,-33.69 -169.6,-66.46 -255.08,-98.78 -1850.43,-698.1 -3930.28,-360.51 -5941.6,-33.92 -280.98,45.61 -559.67,90.76 -834.91,132.69l-91.67 0.01c304.36,-45.61 613.06,-95.57 924.52,-146.22 2012.93,-326.82 4094.61,-664.87 5948.71,34.61 96.26,36.44 192.06,73.57 287.4,111.61l-0.24 0z"/>
    <path class="fil12" d="M9135.97 4881.62l-34.15 0c-1750.27,-760.2 -3722.18,-410.47 -5652.13,0l-65.32 0c922.69,-196.87 1868.31,-384.57 2795.82,-442.33 1151.88,-71.73 2119.72,73.11 2956.02,442.33l-0.23 0z"/>
    <path class="fil13" d="M9022.52 4881.62l-33.7 0c-1480.75,-630.03 -3120.57,-395.57 -4758.09,0l-57.07 0c698.33,-169.83 1402.61,-312.61 2095.89,-371.73 1059.75,-90.53 1964.79,31.17 2752.96,371.73z"/>
    <path class="fil14" d="M8937.95 4881.62l-33.7 0c-1271.06,-517.5 -2659.45,-357.53 -4062.29,0l-51.79 0c527.36,-135.45 1055.4,-244.54 1576.56,-300.46 979.3,-105.19 1826.82,-6.88 2571.45,300.46l-0.23 0z"/>
    <path class="fil15" d="M8135.35 4674.67c256.92,47.44 501.46,115.97 735.91,206.95l-36.45 0c-1091.84,-415.05 -2269.83,-307.56 -3468.46,0l-48.59 0c385.49,-99.93 770.06,-179.91 1150.51,-228.96 612.61,-78.84 1157.84,-71.73 1667.3,22l-0.23 0z"/>
    <path class="fil16" d="M8277.21 4737.69c182.66,36.21 358.9,83.88 529.88,143.93l-37.82 0c-926.59,-318.8 -1914.6,-250.27 -2924.16,0l-47.67 0c259.66,-65.32 518.64,-118.95 775.56,-157.22 627.27,-93.73 1184.88,-89.38 1704.44,13.3l-0.23 -0.01z"/>
    <path class="fil17" d="M8420.22 4800.72c107.03,22.46 212.22,49.5 315.13,80.9l-39.87 0c-763.64,-227.12 -1568.3,-187.47 -2391.76,0l-47.44 0c141.63,-33 282.82,-61.65 423.31,-85.49 641.71,-108.63 1211,-107.03 1740.65,4.58l-0.01 0z"/>
   </g>
   <g>
    <path class="fil18" d="M29776.74 252.11l20.62 0c389.61,281.67 896.34,614.21 1469.07,908.71 1208.49,621.55 2966.32,1196.35 4478.72,404.74 454.47,-237.9 927.28,-356.61 1428.27,-356.61 330.25,0 672.88,51.57 1030.63,154.47 793.2,227.81 1553.87,669.67 2289.55,1096.88 611.23,354.77 1202.99,698.55 1768.16,888.31l0 12.84c-567.46,-189.77 -1161.05,-534.68 -1774.12,-890.6 -1432.41,-831.71 -3055.71,-1774.34 -4737,-894.51 -669.91,350.65 -1443.17,465.7 -2298.72,341.94 -683.66,-99.01 -1420.94,-350.19 -2191.46,-746.46 -579.84,-298.17 -1092.06,-635.3 -1483.97,-919.49l0.23 -0.23z"/>
    <path class="fil19" d="M30121.89 252.11l21.54 0c297.48,198.47 637.37,407.03 1005.89,602.07 1184.89,627.05 2918.2,1237.82 4447.32,588.55 770.06,-327.05 1599.25,-373.57 2534.31,-141.87 823.69,203.97 1617.81,589.69 2385.81,962.35 603.44,292.89 1188.32,576.85 1745.24,748.51l0 12.84c-558.98,-171.66 -1145.47,-456.54 -1750.51,-750.34 -1496.34,-726.52 -3192.53,-1549.98 -4910.27,-820.25 -677.24,287.62 -1450.51,355.01 -2298.03,200.08 -677.93,-123.99 -1404.44,-389.39 -2159.82,-789.08 -375.17,-198.47 -720.33,-410.93 -1021.48,-612.61l0.01 -0.23z"/>
    <path class="fil20" d="M30498.44 252.11l23.15 0c162.03,99.23 332.78,198.7 510.4,295.42 1161.27,632.32 2870.3,1279.54 4415.46,772.58 790.92,-259.44 1649.9,-285.8 2626.22,-80.44 859.67,180.83 1691.84,511.08 2496.51,830.34 584.42,231.94 1151.88,456.99 1691.39,606.87l0 12.6c-541.1,-150.11 -1109.94,-375.62 -1695.97,-608.24 -1569.92,-622.93 -3349.29,-1329.04 -5114.7,-749.89 -684.35,224.6 -1457.39,244.08 -2297.34,58.21 -671.73,-148.74 -1387.7,-428.57 -2127.97,-831.71 -184.03,-100.15 -360.28,-203.06 -527.36,-305.73l0.23 -0.01z"/>
    <path class="fil21" d="M30910.28 252.11l24.98 0c1137.44,634.39 2810.93,1307.72 4363.43,945.16 443.01,-103.36 889.01,-147.37 1333.86,-147.59 1401.46,0 2793.06,437.51 4057.01,834.92 542.48,170.51 1069.84,336.21 1572.2,459.97l0 12.38c-503.52,-123.76 -1032.02,-289.92 -1575.88,-460.89 -1663.42,-523 -3549.14,-1115.67 -5384.45,-686.87 -691.45,161.35 -1464.03,133.15 -2296.66,-83.88 -665.32,-173.49 -1369.82,-467.31 -2094.51,-873.19l0.01 0z"/>
    <path class="fil22" d="M31359.26 252.11l27.73 0c1067.08,535.84 2443.56,1008.64 3762.97,822.54 399.69,-56.38 803.29,-81.13 1207.11,-81.13 1588.47,0 3188.64,382.05 4634.79,727.43 435.91,104.05 861.27,205.58 1269.68,292.67l0 12.6c-409.33,-87.32 -835.61,-189.31 -1272.43,-293.36 -1813.08,-432.93 -3867.93,-923.61 -5837.55,-646.07 -698.55,98.32 -1471.13,22.46 -2295.97,-225.52 -482.65,-145.31 -984.11,-349.28 -1496.33,-608.94l0.01 -0.23z"/>
    <path class="fil23" d="M31843.29 252.11l33 0c937.82,422.16 2041.11,754.24 3125.15,699.93 271.58,-13.76 546.14,-19.94 821.86,-19.94 2219.64,0 4532.57,411.39 6438.7,752.87l0 12.38c-2142.65,-383.65 -4800.49,-856.23 -7259.87,-733.16 -705.89,35.52 -1478.01,-88.23 -2295.28,-367.39 -282.81,-96.71 -571.12,-211.77 -863.33,-344.69l-0.23 -0.01z"/>
    <path class="fil24" d="M32354.6 252.11l37.13 0c767.53,310.09 1614.14,544.54 2460.98,577.54 1653.79,64.17 3264.95,131.79 4795.22,250.27 992.14,77.01 1858.92,169.14 2613.85,278.23l0 13.3c-2301.7,-331.63 -5184.6,-443.47 -7409.75,-529.64 -712.76,-27.73 -1484.66,-198.93 -2294.59,-509.24 -67.38,-25.9 -134.99,-52.48 -202.83,-80.44l-0.01 -0.01z"/>
    <path class="fil25" d="M32869.8 252.11l38.96 0c574.57,212 1181.91,377.69 1795.2,454.93 1322.16,166.62 2740.36,178.31 4111.56,189.99 1219.26,10.32 2395.67,20.17 3446.25,135.67l0 12.14c-1050.36,-115.51 -2226.75,-125.37 -3446.25,-135.67 -1371.89,-11.69 -2790.31,-23.6 -4113.17,-190.22 -580.75,-73.11 -1195.43,-229.87 -1832.56,-467.08l0 0.23z"/>
    <path class="fil26" d="M33345.82 252.11l38.27 0c381.13,134.31 773.72,248.66 1171.13,332.55 1506.43,318.34 3147.84,236.98 4735.4,158.37 1045.31,-51.8 2056.24,-101.76 2971.37,-33.23l0 12.14c-914.67,-68.53 -1925.37,-18.56 -2970.69,33.23 -1588.25,78.84 -3230.34,159.97 -4738.61,-158.83 -390.53,-82.51 -793.9,-197.79 -1206.65,-344.23l-0.22 0z"/>
    <path class="fil27" d="M33731.99 252.11l35.3 0c210.39,75.86 423.76,146.45 639.19,210.16 1589.62,469.14 3348.83,280.75 5049.84,98.78 850.5,-90.99 1677.86,-179.45 2446.09,-179.45 121.47,0 241.1,2.3 359.36,6.88l0 12.14c-866.32,-35.06 -1819.72,67.15 -2804.3,172.35 -1702.39,182.2 -3462.74,370.59 -5054.66,-99.23 -226.44,-66.69 -450.35,-141.17 -671.05,-221.62l0.23 -0.01z"/>
    <path class="fil28" d="M33998.31 252.11l33 0c74.94,29.8 150.57,58.9 226.44,87.55 1641.88,619.49 3487.04,319.71 5271.46,30.02 249.36,-40.34 496.42,-80.67 740.72,-117.8l81.36 0c-269.98,40.34 -543.86,84.8 -820.25,129.71 -1786.04,289.92 -3632.79,589.92 -5277.88,-30.71 -85.49,-32.32 -170.29,-65.32 -255.08,-99.01l0.23 0.23z"/>
    <path class="fil29" d="M34156.44 252.11l30.25 0c1552.96,674.49 3302.55,364.17 5014.78,0l57.98 0c-818.65,174.64 -1657.69,341.25 -2480.46,392.59 -1021.94,63.48 -1880.69,-64.86 -2622.56,-392.59l0.01 0z"/>
    <path class="fil30" d="M34257.05 252.11l29.8 0c1313.68,558.98 2768.55,350.88 4221.57,0l50.64 0c-619.71,150.81 -1244.46,277.32 -1859.59,329.8 -940.11,80.21 -1743.18,-27.73 -2442.41,-329.8z"/>
    <path class="fil31" d="M34332 252.11l29.8 0c1127.81,459.29 2359.68,317.19 3604.15,0l46.06 0c-467.99,120.33 -936.21,216.81 -1398.7,266.54 -868.84,93.28 -1621.02,5.96 -2281.3,-266.54z"/>
    <path class="fil32" d="M35044.07 435.69c-228.04,-41.94 -444.85,-102.91 -652.95,-183.58l32.32 0c968.76,368.3 2013.84,272.73 3077.49,0l43.31 0c-341.94,88.69 -683.2,159.51 -1020.78,203.06 -543.4,70.13 -1027.44,63.71 -1479.39,-19.48z"/>
    <path class="fil33" d="M34918.25 379.76c-162.03,-32.08 -318.57,-74.49 -470.06,-127.65l33.7 0c822.08,282.82 1698.71,222.08 2594.6,0l42.17 0c-230.56,57.98 -460.2,105.43 -688.01,139.57 -556.46,83.19 -1051.27,79.3 -1512.39,-11.92z"/>
    <path class="fil34" d="M34791.51 323.84c-95.11,-19.94 -188.16,-44 -279.6,-71.73l35.29 0c677.47,201.45 1391.61,166.39 2122.02,0l42.17 0c-125.83,29.34 -250.96,54.78 -375.63,75.86 -569.52,96.26 -1074.64,95.11 -1544.24,-3.9l0 -0.23z"/>
   </g>
   <g>
    <path class="fil35" d="M24097.1 3366.26l-534.69 0 888.55 -888.54 -879.84 -880.07 526.21 0 884.19 884.19 -884.19 884.18 -0.23 0.23zm-492.06 -17.65l484.72 0 866.55 -866.54 -866.55 -866.55 -476.24 0 862.19 862.42 -870.9 870.9 0.23 -0.23z"/>
    <path class="fil35" d="M24097.1 3366.26l-534.69 0 888.55 -888.54 -879.84 -880.07 526.21 0 884.19 884.19 -884.19 884.18 -0.23 0.23zm-492.06 -17.65l484.72 0 866.55 -866.54 -866.55 -866.55 -476.24 0 862.19 862.42 -870.9 870.9 0.23 -0.23z"/>
    <polygon class="fil35" points="24276.32,2481.84 23400.83,3357.32 22891.13,3357.32 23770.74,2477.72 22899.83,1606.59 23401.07,1606.59 "/>
    <polygon class="fil35" points="23583.72,2481.84 22708.24,3357.32 22198.54,3357.32 23078.37,2477.72 22207.25,1606.59 22708.47,1606.59 "/>
    <path class="fil35" d="M22019.32 3366.26l-534.68 0 888.55 -888.54 -879.84 -880.07 526.21 0 883.96 884.19 -884.18 884.18 -0.01 0.23zm-492.06 -17.65l484.73 0 866.54 -866.54 -866.54 -866.55 -476.25 0 862.19 862.42 -870.9 870.9 0.23 -0.23z"/>
    <polygon class="fil35" points="22198.54,2481.84 21323.06,3357.32 20813.35,3357.32 21693.19,2477.72 20822.06,1606.59 21323.28,1606.59 "/>
    <polygon class="fil35" points="21505.95,2481.84 20630.69,3357.32 20120.76,3357.32 21000.59,2477.72 20129.46,1606.59 20630.69,1606.59 "/>
   </g>
  </g>
 </g>
</svg>
