<?xml version="1.0" encoding="UTF-8"?>
<svg id="Capa_1" data-name="Capa 1" xmlns="http://www.w3.org/2000/svg" viewBox="0 0 1206.79 126.27">
  <defs>
    <style>
      .cls-1 {
        fill: #3a435e;
      }
    </style>
  </defs>
  <polygon class="cls-1" points="1169.37 .2 1062.66 119.27 1094.02 119.27 1183.17 19.4 1183.17 119.27 1206.79 119.27 1206.79 .2 1169.37 .2"/>
  <polygon class="cls-1" points="547.37 27.23 547.37 92.04 574.37 119.27 700.87 119.07 700.87 95.26 584.16 95.29 570.99 82.01 570.99 37.26 584.16 23.98 700.87 23.84 700.87 0 574.37 0 547.37 27.23"/>
  <polygon class="cls-1" points="715.16 119.27 874.62 119.27 874.62 95.46 738.78 95.46 738.78 71.64 869.86 71.64 869.86 47.83 738.78 47.83 738.78 24.01 874.62 24.01 874.62 .2 715.16 .2 715.16 119.27"/>
  <path class="cls-1" d="M386.2,.2l-27,27.23V92.04l27,27.23h119.87l27-27.23V27.43L506.07,.2h-119.87Zm123.26,81.81l-13.17,13.28h-100.3l-13.17-13.28V37.46l13.17-13.28h100.3l13.17,13.28v44.55Z"/>
  <path class="cls-1" d="M0,119.27H23.61v-36.49h114.68l27-27.23V.2H0V119.27ZM23.61,24.01h118.07v21.67l-13.17,13.28H23.61V24.01Z"/>
  <path class="cls-1" d="M344.9,55.63h0V.74H179.6V118.81h23.61v-36.18h81.98l43.99,43.64,15.72-15.72-27.77-27.92h.77l27-27Zm-36.79,3.39h-104.9V24.35h118.07v21.49l-13.17,13.17Z"/>
  <polygon class="cls-1" points="925.7 47.64 913.9 35.73 925.7 23.82 1059.94 23.82 1059.94 0 915.92 0 888.92 27.24 888.92 44.41 915.92 71.64 1027.91 71.64 1039.72 83.55 1027.91 95.46 893.68 95.46 893.68 119.27 1037.7 119.27 1064.7 92.04 1064.7 74.87 1037.7 47.64 925.7 47.64"/>
</svg>