<?xml version="1.0" encoding="UTF-8"?>
<!DOCTYPE svg PUBLIC "-//W3C//DTD SVG 1.1//EN" "http://www.w3.org/Graphics/SVG/1.1/DTD/svg11.dtd">
<!-- Creator: CorelDRAW 2021.5 -->
<svg xmlns="http://www.w3.org/2000/svg" xml:space="preserve" width="490.801mm" height="57.5838mm" version="1.1" style="shape-rendering:geometricPrecision; text-rendering:geometricPrecision; image-rendering:optimizeQuality; fill-rule:evenodd; clip-rule:evenodd"
viewBox="0 0 40377.58 4737.34"
 xmlns:xlink="http://www.w3.org/1999/xlink"
 xmlns:xodm="http://www.corel.com/coreldraw/odm/2003">
 <defs>
  <style type="text/css">
   <![CDATA[
    .fil35 {fill:#540B0E;fill-rule:nonzero}
    .fil0 {fill:url(#id0);fill-rule:nonzero}
    .fil1 {fill:url(#id1);fill-rule:nonzero}
    .fil19 {fill:url(#id2);fill-rule:nonzero}
    .fil21 {fill:url(#id3);fill-rule:nonzero}
    .fil16 {fill:url(#id4);fill-rule:nonzero}
    .fil33 {fill:url(#id5);fill-rule:nonzero}
    .fil17 {fill:url(#id6);fill-rule:nonzero}
    .fil9 {fill:url(#id7);fill-rule:nonzero}
    .fil29 {fill:url(#id8);fill-rule:nonzero}
    .fil15 {fill:url(#id9);fill-rule:nonzero}
    .fil8 {fill:url(#id10);fill-rule:nonzero}
    .fil31 {fill:url(#id11);fill-rule:nonzero}
    .fil7 {fill:url(#id12);fill-rule:nonzero}
    .fil32 {fill:url(#id13);fill-rule:nonzero}
    .fil30 {fill:url(#id14);fill-rule:nonzero}
    .fil34 {fill:url(#id15);fill-rule:nonzero}
    .fil24 {fill:url(#id16);fill-rule:nonzero}
    .fil14 {fill:url(#id17);fill-rule:nonzero}
    .fil28 {fill:url(#id18);fill-rule:nonzero}
    .fil4 {fill:url(#id19);fill-rule:nonzero}
    .fil10 {fill:url(#id20);fill-rule:nonzero}
    .fil12 {fill:url(#id21);fill-rule:nonzero}
    .fil5 {fill:url(#id22);fill-rule:nonzero}
    .fil25 {fill:url(#id23);fill-rule:nonzero}
    .fil22 {fill:url(#id24);fill-rule:nonzero}
    .fil2 {fill:url(#id25);fill-rule:nonzero}
    .fil27 {fill:url(#id26);fill-rule:nonzero}
    .fil23 {fill:url(#id27);fill-rule:nonzero}
    .fil20 {fill:url(#id28);fill-rule:nonzero}
    .fil3 {fill:url(#id29);fill-rule:nonzero}
    .fil13 {fill:url(#id30);fill-rule:nonzero}
    .fil18 {fill:url(#id31);fill-rule:nonzero}
    .fil6 {fill:url(#id32);fill-rule:nonzero}
    .fil11 {fill:url(#id33);fill-rule:nonzero}
    .fil26 {fill:url(#id34);fill-rule:nonzero}
   ]]>
  </style>
  <linearGradient id="id0" gradientUnits="userSpaceOnUse" x1="17.85" y1="2362.8" x2="40373.66" y2="2362.8">
   <stop offset="0" style="stop-opacity:1; stop-color:#9E2A2B"/>
   <stop offset="0.501961" style="stop-opacity:1; stop-color:#540B0E"/>
   <stop offset="1" style="stop-opacity:1; stop-color:#9E2A2B"/>
  </linearGradient>
  <linearGradient id="id1" gradientUnits="userSpaceOnUse" x1="1193.27" y1="-553.96" x2="12664.41" y2="6063.17">
   <stop offset="0" style="stop-opacity:1; stop-color:#FDF0D5"/>
   <stop offset="0.509804" style="stop-opacity:1; stop-color:#780000"/>
   <stop offset="1" style="stop-opacity:1; stop-color:#C1121F"/>
  </linearGradient>
  <linearGradient id="id2" gradientUnits="userSpaceOnUse" xlink:href="#id1" x1="-10444349.25" y1="15716364.44" x2="15425349.12" y2="4550890.65">
  </linearGradient>
  <linearGradient id="id3" gradientUnits="userSpaceOnUse" xlink:href="#id1" x1="-13839298.29" y1="8584288.23" x2="-14390828.55" y2="6864811.02">
  </linearGradient>
  <linearGradient id="id4" gradientUnits="userSpaceOnUse" xlink:href="#id1" x1="908154.3" y1="-60805.96" x2="914295.39" y2="-13187.63">
  </linearGradient>
  <linearGradient id="id5" gradientUnits="userSpaceOnUse" xlink:href="#id1" x1="-3402243.88" y1="761032.14" x2="-3407080.9" y2="723534.38">
  </linearGradient>
  <linearGradient id="id6" gradientUnits="userSpaceOnUse" xlink:href="#id1" x1="770251.11" y1="-40719.1" x2="773614.6" y2="-11644.81">
  </linearGradient>
  <linearGradient id="id7" gradientUnits="userSpaceOnUse" xlink:href="#id1" x1="2047651.65" y1="-345377.31" x2="2100513.76" y2="129139.03">
  </linearGradient>
  <linearGradient id="id8" gradientUnits="userSpaceOnUse" xlink:href="#id1" x1="-6307039.37" y1="1591416.47" x2="-6327327.9" y2="1444842.53">
  </linearGradient>
  <linearGradient id="id9" gradientUnits="userSpaceOnUse" xlink:href="#id1" x1="1038954.3" y1="-83242.78" x2="1048711.71" y2="-12455.66">
  </linearGradient>
  <linearGradient id="id10" gradientUnits="userSpaceOnUse" xlink:href="#id1" x1="2251718.2" y1="-492533.33" x2="2353450.21" y2="203986.85">
  </linearGradient>
  <linearGradient id="id11" gradientUnits="userSpaceOnUse" xlink:href="#id1" x1="-4629718.31" y1="1165124.23" x2="-4640850.81" y2="1086869.33">
  </linearGradient>
  <linearGradient id="id12" gradientUnits="userSpaceOnUse" xlink:href="#id1" x1="2461783.07" y1="-714026.08" x2="2664324.98" y2="322279.56">
  </linearGradient>
  <linearGradient id="id13" gradientUnits="userSpaceOnUse" xlink:href="#id1" x1="-3993437.12" y1="963292.64" x2="-4001118.26" y2="907564.13">
  </linearGradient>
  <linearGradient id="id14" gradientUnits="userSpaceOnUse" xlink:href="#id1" x1="-5370237.81" y1="1375541.68" x2="-5385586.95" y2="1268134.81">
  </linearGradient>
  <linearGradient id="id15" gradientUnits="userSpaceOnUse" xlink:href="#id1" x1="-2817236.16" y1="560859.45" x2="-2819885.32" y2="537965.84">
  </linearGradient>
  <linearGradient id="id16" gradientUnits="userSpaceOnUse" xlink:href="#id1" x1="-11942793.55" y1="4540666.31" x2="-12102220.51" y2="3724935.23">
  </linearGradient>
  <linearGradient id="id17" gradientUnits="userSpaceOnUse" xlink:href="#id1" x1="1170395.49" y1="-108273.94" x2="1184539.77" y2="-8851.02">
  </linearGradient>
  <linearGradient id="id18" gradientUnits="userSpaceOnUse" xlink:href="#id1" x1="-7730649.7" y1="1824811.65" x2="-7756810.63" y2="1617269.7">
  </linearGradient>
  <linearGradient id="id19" gradientUnits="userSpaceOnUse" xlink:href="#id1" x1="3018059.39" y1="-1409727.4" x2="3718649.13" y2="774561.94">
  </linearGradient>
  <linearGradient id="id20" gradientUnits="userSpaceOnUse" xlink:href="#id1" x1="1876540.66" y1="-301849.66" x2="1918595.81" y2="99322.23">
  </linearGradient>
  <linearGradient id="id21" gradientUnits="userSpaceOnUse" xlink:href="#id1" x1="1472695.72" y1="-173607.43" x2="1498454.05" y2="12538.45">
  </linearGradient>
  <linearGradient id="id22" gradientUnits="userSpaceOnUse" xlink:href="#id1" x1="2854852.06" y1="-1175403.85" x2="3357618.61" y2="610464.2">
  </linearGradient>
  <linearGradient id="id23" gradientUnits="userSpaceOnUse" xlink:href="#id1" x1="-11257071.22" y1="3208541.4" x2="-11337144.83" y2="2660286.87">
  </linearGradient>
  <linearGradient id="id24" gradientUnits="userSpaceOnUse" xlink:href="#id1" x1="-13257184.74" y1="7226494.19" x2="-13652844.65" y2="5820900.65">
  </linearGradient>
  <linearGradient id="id25" gradientUnits="userSpaceOnUse" xlink:href="#id1" x1="3265599.86" y1="-1869978.54" x2="4451211.18" y2="1131295.61">
  </linearGradient>
  <linearGradient id="id26" gradientUnits="userSpaceOnUse" xlink:href="#id1" x1="-10091343.4" y1="2077978.83" x2="-10124441.34" y2="1762213.11">
  </linearGradient>
  <linearGradient id="id27" gradientUnits="userSpaceOnUse" xlink:href="#id1" x1="-12621439.2" y1="5876264.85" x2="-12885976.07" y2="4773801.53">
  </linearGradient>
  <linearGradient id="id28" gradientUnits="userSpaceOnUse" xlink:href="#id1" x1="-14362566.08" y1="9947090.8" x2="-15093571.98" y2="7907555.37">
  </linearGradient>
  <linearGradient id="id29" gradientUnits="userSpaceOnUse" xlink:href="#id1" x1="3154183.95" y1="-1642488.41" x2="4082996.98" y2="948628.11">
  </linearGradient>
  <linearGradient id="id30" gradientUnits="userSpaceOnUse" xlink:href="#id1" x1="1311818.74" y1="-137789.52" x2="1331325.85" y2="-1312.78">
  </linearGradient>
  <linearGradient id="id31" gradientUnits="userSpaceOnUse" xlink:href="#id1" x1="-10910974.77" y1="16871521.26" x2="15541040.86" y2="5809722.44">
  </linearGradient>
  <linearGradient id="id32" gradientUnits="userSpaceOnUse" xlink:href="#id1" x1="2667543.04" y1="-942069.47" x2="3003635.98" y2="458495.81">
  </linearGradient>
  <linearGradient id="id33" gradientUnits="userSpaceOnUse" xlink:href="#id1" x1="1674659.89" y1="-223754.34" x2="1707894.35" y2="39902.32">
  </linearGradient>
  <linearGradient id="id34" gradientUnits="userSpaceOnUse" xlink:href="#id1" x1="-10616045.95" y1="2316246.52" x2="-10657660.1" y2="1942701.19">
  </linearGradient>
 </defs>
 <g id="Layer_x0020_1">
  <metadata id="CorelCorpID_0Corel-Layer"/>
  <g id="_1882297016144">
   <rect class="fil0" x="-0" y="0" width="40377.57" height="4737.34"/>
   <g>
    <path class="fil1" d="M13604.29 4440.45l-21.98 0c-417.05,-301.47 -959.48,-657.58 -1572.44,-972.76 -1293.6,-665.41 -3175.35,-1280.54 -4794.37,-433.16 -486.48,254.67 -992.78,381.79 -1528.9,381.79 -353.71,0 -720.27,-55.28 -1103.15,-165.21 -848.91,-244.01 -1663.43,-716.78 -2450.95,-1174.1 -654.53,-380.06 -1288.17,-747.92 -1893.07,-951l0 -13.71c607.3,203.09 1242.89,572.25 1899.16,953.4 1533.26,890.26 3271.13,1899.37 5070.8,957.52 717.22,-375.48 1545.01,-498.68 2460.53,-365.9 732.02,106 1521.07,374.82 2345.81,799.07 620.79,319.1 1168.88,680 1588.55,984.3l0 -0.23z"/>
    <path class="fil2" d="M13234.92 4440.45l-23.08 0c-318.45,-212.44 -682.17,-435.78 -1076.81,-644.52 -1268.57,-671.07 -3123.98,-1325.17 -4760.63,-629.93 -824.52,350.23 -1711.96,399.86 -2713.02,151.93 -881.78,-218.32 -1731.78,-631.03 -2553.91,-1030.22 -645.6,-313.67 -1271.84,-617.53 -1868.03,-801.25l0 -13.71c598.16,183.93 1226.13,488.67 1873.92,803.2 1601.82,777.73 3417.4,1659.06 5256.26,878.07 724.84,-308.01 1552.63,-380.05 2459.88,-214.19 725.49,132.56 1503.44,416.84 2311.86,844.78 401.6,212.44 771.2,439.91 1093.57,655.84l-0.01 0z"/>
    <path class="fil3" d="M12831.57 4440.45l-24.59 0c-173.48,-106.23 -356.32,-212.66 -546.35,-316.27 -1243.1,-676.95 -3072.39,-1369.79 -4726.68,-826.92 -846.5,277.75 -1766.16,306.04 -2811.41,85.98 -920.08,-193.5 -1811.01,-547 -2672.53,-888.96 -625.58,-248.35 -1233.09,-489.1 -1810.57,-649.73l0 -13.49c579.22,160.64 1188.04,402.25 1815.37,651.04 1680.62,666.94 3585.44,1422.69 5475.01,802.55 732.68,-240.31 1560.04,-261.42 2459.22,-62.25 719.18,159.34 1485.38,458.85 2277.9,890.27 196.99,107.1 385.71,217.45 564.63,327.37l-0.01 0.43z"/>
    <path class="fil4" d="M12390.79 4440.45l-26.77 0c-1217.63,-679.13 -3009.05,-1400.05 -4670.95,-1011.72 -474.08,110.79 -951.64,157.81 -1427.9,158.03 -1500.18,0 -2989.91,-468.42 -4342.93,-893.75 -580.74,-182.63 -1145.16,-360.02 -1683.02,-492.36l0 -13.28c538.95,132.56 1104.89,310.39 1686.72,493.23 1780.75,559.85 3799.19,1194.13 5763.87,735.28 740.07,-172.83 1567.22,-142.57 2458.57,89.68 712.22,185.67 1466.44,500.2 2242.2,934.67l0.21 0.21z"/>
    <path class="fil5" d="M11910.18 4440.45l-29.81 0c-1142.33,-573.56 -2615.73,-1079.64 -4028.19,-880.47 -427.94,60.29 -859.78,86.85 -1292.29,86.85 -1700.44,0 -3413.27,-409 -4961.54,-778.6 -466.69,-111.45 -921.83,-220.06 -1359.13,-313.23l0 -13.49c438.17,93.38 894.4,202.43 1362.17,314.09 1940.73,463.42 4140.49,988.87 6248.83,691.76 747.69,-105.35 1574.62,-23.94 2457.92,241.61 516.75,155.41 1053.3,373.95 1601.82,651.92l0.21 -0.44z"/>
    <path class="fil6" d="M11392.13 4440.45l-35.26 0c-1003.89,-451.89 -2184.97,-807.34 -3345.36,-749.43 -290.8,14.59 -584.66,21.33 -879.59,21.33 -2376.08,0 -4851.84,-440.34 -6892.49,-805.81l0 -13.28c2293.57,410.74 5138.72,916.6 7771.43,784.92 755.53,-38.09 1582.02,94.47 2457.05,393.33 302.78,103.4 611.22,226.59 924.22,368.95l-0.01 0z"/>
    <path class="fil7" d="M10844.7 4440.45l-39.62 0c-821.7,-331.95 -1728.08,-582.91 -2634.45,-618.18 -1770.3,-68.78 -3495.1,-141.05 -5133.29,-267.95 -1062,-82.5 -1989.92,-181.1 -2798.13,-297.99l0 -14.15c2463.79,355.02 5549.9,474.74 7931.85,567.03 762.93,29.6 1589.42,213.1 2456.39,545.05 72.05,27.64 144.53,56.16 217.23,85.98l0.01 0.21z"/>
    <path class="fil8" d="M10293.34 4440.45l-41.79 0c-615.13,-226.81 -1265.31,-404.21 -1921.8,-487.15 -1415.28,-178.27 -2933.31,-190.9 -4401.48,-203.52 -1305.37,-11.1 -2564.57,-21.77 -3689.05,-145.19l0 -13.06c1124.26,123.63 2383.69,134.3 3689.05,145.19 1468.61,12.41 2987.08,25.25 4403,203.52 621.66,78.36 1279.68,245.97 1961.64,499.99l0.44 0.22z"/>
    <path class="fil9" d="M9783.56 4440.45l-40.92 0c-408.13,-143.88 -828.23,-265.99 -1253.56,-355.89 -1612.7,-340.87 -3369.73,-253.8 -5069.08,-169.56 -1119.03,55.51 -2201.07,109.06 -3180.8,35.7l0 -13.06c979.08,73.35 2061.11,19.81 3180.14,-35.7 1700,-84.23 3457.89,-171.31 5072.34,170 417.92,88.37 849.78,211.58 1291.65,368.51l0.22 0z"/>
    <path class="fil10" d="M9370.42 4440.45l-37.87 0c-225.07,-81.4 -453.62,-156.72 -684.14,-224.85 -1701.73,-502.16 -3584.78,-300.6 -5405.81,-105.57 -910.5,97.51 -1795.98,192.2 -2618.55,192.2 -129.95,0 -258.16,-2.39 -384.62,-7.4l0 -13.06c927.49,37.44 1947.92,-71.83 3001.87,-184.59 1822.33,-195.03 3706.69,-396.81 5410.81,106.23 242.26,71.39 482.14,151.06 718.31,237.26l0 -0.22z"/>
    <path class="fil11" d="M9085.28 4440.45l-35.26 0c-80.32,-31.99 -161.07,-63.12 -242.26,-93.82 -1757.46,-663.02 -3732.8,-342.39 -5643.06,-32.22 -266.86,43.31 -531.55,86.2 -792.96,126.03l-87.07 0.01c289.06,-43.31 582.26,-90.77 878.07,-138.87 1911.79,-310.4 3888.88,-631.46 5649.82,32.87 91.43,34.61 182.41,69.87 272.96,106l-0.22 0z"/>
    <path class="fil12" d="M8916.15 4440.45l-32.43 0c-1662.34,-722.01 -3535.16,-389.85 -5368.15,0l-62.04 0c876.33,-186.98 1774.44,-365.25 2655.35,-420.11 1094,-68.13 2013.21,69.43 2807.49,420.11l-0.22 0z"/>
    <path class="fil13" d="M8808.19 4440.45l-32 0c-1406.36,-598.37 -2963.78,-375.7 -4519.02,0l-54.2 0c663.24,-161.3 1332.14,-296.9 1990.58,-353.06 1006.49,-85.98 1866.07,29.6 2614.64,353.06z"/>
    <path class="fil14" d="M8727.86 4440.45l-31.99 0c-1207.19,-491.5 -2525.83,-339.56 -3858.18,0l-49.2 0c500.86,-128.64 1002.37,-232.25 1497.35,-285.37 930.09,-99.91 1735.03,-6.53 2442.24,285.37l-0.22 0z"/>
    <path class="fil15" d="M7965.8 4243.9c244.01,45.06 476.26,110.14 698.94,196.56l-34.61 0c-1036.98,-394.2 -2155.78,-292.11 -3294.19,0l-46.15 0c366.12,-94.91 731.37,-170.87 1092.7,-217.45 581.83,-74.88 1099.66,-68.13 1583.53,20.9l-0.21 0z"/>
    <path class="fil16" d="M8100.54 4303.75c173.48,34.39 340.87,79.67 503.25,136.7l-35.91 0c-880.04,-302.78 -1818.4,-237.7 -2777.23,0l-45.28 0c246.62,-62.04 492.58,-112.97 736.59,-149.32 595.76,-89.02 1125.35,-84.89 1618.8,12.63l-0.22 -0.01z"/>
    <path class="fil17" d="M8236.15 4363.61c101.65,21.33 201.56,47.02 299.29,76.84l-37.88 0c-725.27,-215.71 -1489.5,-178.05 -2271.59,0l-45.06 0c134.52,-31.34 268.61,-58.55 402.04,-81.19 609.46,-103.17 1150.16,-101.65 1653.19,4.35z"/>
   </g>
   <g>
    <path class="fil18" d="M28345.71 239.44l19.59 0c370.04,267.51 851.31,583.35 1395.26,863.06 1147.77,590.32 2817.28,1136.24 4253.69,384.4 431.64,-225.94 880.69,-338.69 1356.51,-338.69 313.66,0 639.07,48.97 978.85,146.71 753.35,216.37 1475.8,636.03 2174.52,1041.77 580.52,336.95 1142.55,663.45 1679.32,843.68l0 12.19c-538.95,-180.23 -1102.71,-507.82 -1684.98,-845.85 -1360.44,-789.92 -2902.18,-1685.19 -4498.99,-849.56 -636.25,333.03 -1370.66,442.3 -2183.22,324.76 -649.31,-94.03 -1349.54,-332.6 -2081.35,-708.95 -550.71,-283.19 -1037.19,-603.38 -1409.41,-873.29l0.22 -0.22z"/>
    <path class="fil19" d="M28673.29 239.44l20.46 0c282.54,188.5 605.34,386.58 955.35,571.82 1125.35,595.54 2771.57,1175.63 4223.86,558.97 731.37,-310.61 1518.89,-354.8 2406.98,-134.74 782.3,193.73 1536.52,560.06 2265.93,914 573.12,278.18 1128.61,547.87 1657.55,710.9l0 12.19c-530.9,-163.03 -1087.91,-433.6 -1662.56,-712.64 -1421.16,-690.01 -3032.13,-1472.1 -4663.56,-779.04 -643.21,273.17 -1377.63,337.17 -2182.57,190.02 -643.87,-117.76 -1333.87,-369.82 -2051.3,-749.43 -356.32,-188.5 -684.14,-390.28 -970.15,-581.83l0.01 -0.22z"/>
    <path class="fil20" d="M29031.15 239.44l21.98 0c153.89,94.25 316.06,188.72 484.75,280.58 1102.93,600.55 2726.08,1215.25 4193.6,733.76 751.18,-246.4 1567,-271.44 2494.26,-76.4 816.48,171.74 1606.83,485.4 2371.07,788.62 555.06,220.28 1094.01,434.02 1606.4,576.38l0 11.97c-513.92,-142.57 -1054.17,-356.75 -1610.75,-577.68 -1491.04,-591.63 -3181.01,-1262.26 -4857.72,-712.22 -649.96,213.31 -1384.16,231.82 -2181.91,55.28 -637.98,-141.26 -1317.98,-407.04 -2021.05,-789.92 -174.79,-95.12 -342.18,-192.85 -500.86,-290.37l0.22 -0.01z"/>
    <path class="fil21" d="M29422.3 239.44l23.72 0c1080.29,602.51 2669.7,1242.02 4144.19,897.67 420.75,-98.17 844.34,-139.96 1266.84,-140.18 1331.04,0 2652.73,415.53 3853.17,792.97 515.22,161.95 1016.08,319.32 1493.21,436.86l0 11.76c-478.22,-117.55 -980.17,-275.35 -1496.7,-437.74 -1579.85,-496.72 -3370.82,-1059.61 -5113.91,-652.36 -656.71,153.24 -1390.47,126.46 -2181.26,-79.67 -631.89,-164.78 -1301,-443.83 -1989.27,-829.32l0.02 0z"/>
    <path class="fil22" d="M29848.71 239.44l26.34 0c1013.47,508.91 2320.78,957.96 3573.9,781.22 379.61,-53.55 762.93,-77.05 1146.46,-77.05 1508.66,0 3028.43,362.85 4401.92,690.88 414.01,98.82 818,195.25 1205.89,277.96l0 11.97c-388.76,-82.94 -793.62,-179.8 -1208.5,-278.62 -1721.98,-411.18 -3673.59,-877.21 -5544.24,-613.61 -663.46,93.38 -1397.22,21.33 -2180.61,-214.19 -458.4,-138.01 -934.66,-331.73 -1421.15,-578.35l0 -0.21z"/>
    <path class="fil23" d="M30308.42 239.44l31.34 0c890.7,400.94 1938.55,716.35 2968.13,664.76 257.94,-13.06 518.7,-18.94 780.57,-18.94 2108.12,0 4304.83,390.72 6115.19,715.05l0 11.76c-2034.99,-364.38 -4559.29,-813.21 -6895.1,-696.32 -670.42,33.74 -1403.75,-83.8 -2179.96,-348.93 -268.6,-91.85 -542.42,-201.13 -819.96,-327.37l-0.21 -0.01z"/>
    <path class="fil24" d="M30794.05 239.44l35.26 0c728.97,294.51 1533.04,517.18 2337.33,548.53 1570.7,60.94 3100.9,125.16 4554.29,237.7 942.29,73.14 1765.52,160.64 2482.52,264.25l0 12.63c-2186.05,-314.97 -4924.1,-421.19 -7037.45,-503.03 -676.95,-26.33 -1410.06,-188.94 -2179.31,-483.66 -63.99,-24.6 -128.2,-49.85 -192.63,-76.4l0 -0.01z"/>
    <path class="fil25" d="M31283.36 239.44l37 0c545.7,201.34 1122.52,358.72 1705,432.08 1255.73,158.24 2602.67,169.35 3904.98,180.45 1158,9.8 2275.3,19.15 3273.09,128.86l0 11.53c-997.58,-109.71 -2114.87,-119.07 -3273.09,-128.86 -1302.96,-11.1 -2650.11,-22.42 -3906.5,-180.66 -551.57,-69.43 -1135.37,-218.32 -1740.48,-443.61l0 0.21z"/>
    <path class="fil26" d="M31735.46 239.44l36.35 0c361.98,127.56 734.85,236.17 1112.29,315.84 1430.74,302.35 2989.68,225.07 4497.47,150.41 992.79,-49.2 1952.93,-96.65 2822.08,-31.56l0 11.53c-868.72,-65.08 -1828.64,-17.63 -2821.43,31.56 -1508.45,74.88 -3068.04,151.93 -4500.52,-150.85 -370.91,-78.36 -754.01,-187.85 -1146.03,-326.94l-0.21 0z"/>
    <path class="fil27" d="M32102.01 239.44l33.52 0c199.82,72.05 402.47,139.09 607.08,199.6 1509.75,445.57 3180.57,266.64 4796.12,93.82 807.77,-86.42 1593.55,-170.44 2323.19,-170.44 115.37,0 228.99,2.18 341.31,6.53l0 11.53c-822.79,-33.3 -1728.29,63.77 -2663.4,163.69 -1616.85,173.04 -3288.76,351.97 -4800.69,-94.25 -215.06,-63.34 -427.72,-134.08 -637.34,-210.48l0.21 -0.01z"/>
    <path class="fil28" d="M32354.95 239.44l31.34 0c71.18,28.3 143.01,55.94 215.06,83.15 1559.39,588.36 3311.83,303.65 5006.6,28.51 236.83,-38.31 471.47,-76.62 703.5,-111.89l77.27 0.01c-256.42,38.31 -516.53,80.54 -779.04,123.2 -1696.3,275.35 -3450.27,560.28 -5012.7,-29.16 -81.19,-30.69 -161.73,-62.04 -242.26,-94.03l0.21 0.21z"/>
    <path class="fil29" d="M32505.14 239.44l28.73 0c1474.93,640.6 3136.62,345.87 4762.81,0l55.07 0c-777.51,165.86 -1574.4,324.11 -2355.83,372.87 -970.59,60.29 -1786.19,-61.6 -2490.79,-372.87l0.01 0z"/>
    <path class="fil30" d="M32600.91 239.44l28.29 0c1247.68,530.9 2629.45,333.25 4009.46,0l48.1 0c-588.57,143.23 -1181.94,263.38 -1766.16,313.23 -892.88,76.18 -1655.59,-26.33 -2319.7,-313.23z"/>
    <path class="fil31" d="M32672.09 239.44l28.3 0c1071.15,436.21 2241.12,301.25 3423.06,0l43.75 0c-444.48,114.28 -889.17,205.92 -1328.43,253.15 -825.19,88.6 -1539.58,5.66 -2166.68,-253.15l-0.01 0z"/>
    <path class="fil32" d="M33348.38 413.8c-216.58,-39.83 -422.5,-97.74 -620.14,-174.35l30.69 0c920.08,349.8 1912.66,259.02 2922.87,0l41.13 0c-324.76,84.23 -648.86,151.5 -969.49,192.85 -516.1,66.6 -975.81,60.51 -1405.06,-18.5z"/>
    <path class="fil33" d="M33228.89 360.68c-153.89,-30.47 -302.56,-70.74 -446.44,-121.24l31.99 0c780.78,268.61 1613.36,210.92 2464.23,0l40.05 0c-218.97,55.07 -437.08,100.13 -653.44,132.56 -528.5,79.01 -998.45,75.32 -1436.4,-11.32l0.01 0z"/>
    <path class="fil34" d="M33108.3 307.79c-90.33,-18.94 -178.7,-41.79 -265.56,-68.13l33.52 -0.01c643.43,191.33 1321.69,158.03 2015.4,0l40.05 0c-119.5,27.86 -238.35,52.03 -356.76,72.05 -540.91,91.43 -1020.65,90.33 -1466.65,-3.7l0 -0.21z"/>
   </g>
   <g>
    <path class="fil35" d="M27911.67 3482.49l-688.93 0 1144.72 -1144.71 -1133.62 -1133.84 678.04 -0.01 1139.06 1139.28 -1139.28 1139.27 0.01 0zm-634.07 -22.64l624.71 0 1116.64 -1116.63 -1116.43 -1116.64 -613.82 0 1110.98 1111.2 -1122.09 1122.08 0.01 -0.01z"/>
    <path class="fil35" d="M27911.67 3482.49l-688.93 0 1144.72 -1144.71 -1133.62 -1133.84 678.04 -0.01 1139.06 1139.28 -1139.28 1139.27 0.01 0zm-634.07 -22.64l624.71 0 1116.64 -1116.63 -1116.43 -1116.64 -613.82 0 1110.98 1111.2 -1122.09 1122.08 0.01 -0.01z"/>
    <polygon class="fil35" points="28142.4,2343.22 27014.44,3471.17 26357.73,3471.17 27491.13,2337.77 26368.83,1215.26 27014.66,1215.26 "/>
    <polygon class="fil35" points="27250.18,2343.22 26122,3471.17 25465.29,3471.17 26598.69,2337.77 25476.4,1215.26 26122.44,1215.26 "/>
    <path class="fil35" d="M25234.35 3482.49l-688.92 0 1144.72 -1144.71 -1133.62 -1133.84 678.04 -0.01 1139.05 1139.28 -1139.27 1139.27zm-634.07 -22.64l624.71 0 1116.63 -1116.63 -1116.42 -1116.64 -613.82 0 1110.98 1111.2 -1122.09 1122.08 0.01 -0.01z"/>
    <polygon class="fil35" points="25465.29,2343.22 24337.33,3471.17 23680.63,3471.17 24814.03,2337.77 23691.73,1215.26 24337.55,1215.26 "/>
    <polygon class="fil35" points="24572.85,2343.22 23444.89,3471.17 22788.18,3471.17 23921.59,2337.77 22799.28,1215.26 23445.11,1215.26 "/>
   </g>
  </g>
 </g>
</svg>
